<svg xmlns="http://www.w3.org/2000/svg" viewBox="0 0 48 48" width="48" height="48">
  <path fill="#4285F4" d="M38 44H10a4 4 0 0 1-4-4V14a4 4 0 0 1 4-4h28a4 4 0 0 1 4 4v26a4 4 0 0 1-4 4z"/>
  <path fill="#fff" d="M10 14h28v26H10z"/>
  <path fill="#EA4335" d="M38 10H10a4 4 0 0 0-4 4v4h36v-4a4 4 0 0 0-4-4z"/>
  <rect x="12" y="5" width="4" height="8" rx="2" fill="#4285F4"/>
  <rect x="32" y="5" width="4" height="8" rx="2" fill="#4285F4"/>
  <text x="24" y="32" font-family="-apple-system, BlinkMacSystemFont, 'Segoe UI', Roboto, sans-serif" font-size="15" font-weight="700" fill="#4285F4" text-anchor="middle" dominant-baseline="middle">31</text>
</svg>
